<?xml version="1.0" encoding="UTF-8"?>
<svg id="Camada_2" data-name="Camada 2" xmlns="http://www.w3.org/2000/svg" viewBox="0 0 2554.71 966.16">
  <defs>
    <style>
      .cls-1 {
        fill: #1a1a1a;
      }
    </style>
  </defs>
  <g id="Camada_5" data-name="Camada 5">
    <g>
      <g>
        <path class="cls-1" d="m524.6,315.07c0,19.06-3.04,37.07-9.11,54.03-6.08,16.97-13.74,32.07-22.96,45.31-9.23,13.24-19.02,24.29-29.37,33.11-10.36,8.83-19.81,14.64-28.36,17.43,8.1,3.26,18,9.41,29.71,18.47,11.7,9.06,23.06,20.91,34.1,35.55,11.02,14.64,20.48,31.96,28.36,51.93,7.87,19.99,11.82,42.52,11.82,67.62v89.23c0,33.93-7.32,65.53-21.94,94.81-14.63,29.28-33.76,54.49-57.39,75.63-23.63,21.15-50.53,37.76-80.68,49.84-30.16,12.09-60.76,18.12-91.82,18.12H25.66c-17.11,0-25.66-9.52-25.66-28.58V29.95C0,10.43,8.55.68,25.66.68h241.03c39.16,0,74.61,6.86,106.34,20.56,31.73,13.71,58.84,32.42,81.36,56.12,22.5,23.7,39.84,51.13,51.99,82.26,12.15,31.14,18.23,64.13,18.23,98.99v56.47Zm-230.23-41.83c0-16.73-4.17-28.46-12.49-35.2-8.34-6.73-17.67-10.11-28.02-10.11h-29.71v145h29.71c10.8,0,20.26-3.02,28.36-9.06,8.1-6.03,12.15-17.89,12.15-35.55v-55.07Zm1.35,340.19c0-11.15-3.49-20.79-10.47-28.93-6.98-8.13-17.22-12.2-30.72-12.2h-30.38v168h31.73c10.8,0,20.14-3.94,28.02-11.85,7.87-7.9,11.81-17.43,11.81-28.58v-86.44Z"/>
        <path class="cls-1" d="m896.95,523.67c0,4.09-1.13,7.8-3.39,11.12-2.26,3.32-5.53,4.98-9.81,4.98h-109.39c-3.77,0-6.92-1.59-9.43-4.79-2.52-3.19-3.77-6.96-3.77-11.31v-85.49h-36.59v85.49c0,4.35-.75,8.12-2.26,11.31-1.51,3.2-4.78,4.79-9.81,4.79h-113.54c-2.77,0-5.16-1.66-7.17-4.98-2.02-3.32-3.02-7.03-3.02-11.12V142.23c0-19.68,4.15-38.2,12.45-55.59,8.3-17.38,19.55-32.45,33.76-45.24,14.2-12.78,30.61-22.87,49.22-30.29,18.61-7.41,38.1-11.12,58.47-11.12s39.92,3.71,58.65,11.12c18.73,7.42,35.14,17.51,49.22,30.29,14.08,12.78,25.33,27.86,33.76,45.24,8.42,17.38,12.64,35.91,12.64,55.59v381.44Zm-172.38-205.48h36.59v-167.91c0-6.39-1.2-12.27-3.58-17.63-2.39-5.37-7.23-8.05-14.52-8.05s-12.2,2.68-14.71,8.05c-2.52,5.37-3.77,11.25-3.77,17.63v167.91Z"/>
        <path class="cls-1" d="m1141.96,539.38c-5.53,0-10.44-1.69-14.71-5.07-4.28-3.37-6.41-8.44-6.41-15.2v-83.01c0-23.38-3.02-41.83-9.05-55.34-6.03-13.51-15.72-22.86-29.04-28.06v171.09c0,10.66-4.66,15.98-13.96,15.98h-107.5c-9.56,0-14.33-5.32-14.33-15.98V16.37c0-10.91,4.77-16.37,14.33-16.37h147.48c20.62,0,39.85,3.96,57.71,11.89,17.85,7.93,33.44,18.71,46.77,32.35,13.33,13.64,23.82,29.42,31.5,47.35,7.67,17.93,11.5,37.02,11.5,57.29v58.85c0,20.53-4.15,38.33-12.45,53.39-8.3,15.07-18.86,28.06-31.68,38.97,15.09,15.59,26.22,35.6,33.38,60.02,7.17,24.42,10.75,54.82,10.75,91.19v69.37c0,3.9-1.13,7.99-3.39,12.28-2.26,4.29-6.29,6.43-12.07,6.43h-98.82Zm-59.22-412.33v114.19h15.09c6.54,0,11.94-2.01,16.22-6.04,4.27-4.02,6.41-9.16,6.41-15.39v-70.93c0-7.27-2.26-12.73-6.79-16.37-4.53-3.64-9.94-5.46-16.22-5.46h-14.71Z"/>
        <path class="cls-1" d="m1599.33,175.77c0,10.66-1.7,20.72-5.09,30.2-3.39,9.49-7.67,17.93-12.83,25.33-5.16,7.4-10.63,13.58-16.41,18.51-5.79,4.94-11.07,8.18-15.84,9.74,4.53,1.82,10.05,5.26,16.6,10.33,6.54,5.07,12.88,11.69,19.05,19.88,6.16,8.18,11.44,17.87,15.84,29.03,4.4,11.17,6.6,23.77,6.6,37.8v49.88c0,18.97-4.09,36.63-12.26,53-8.17,16.37-18.86,30.47-32.06,42.28-13.2,11.83-28.23,21.11-45.07,27.87-16.85,6.76-33.95,10.13-51.3,10.13h-145.97c-9.56,0-14.33-5.32-14.33-15.98V16.37c0-10.91,4.77-16.37,14.33-16.37h134.66c21.88,0,41.68,3.84,59.41,11.5,17.73,7.67,32.87,18.12,45.45,31.37,12.57,13.25,22.25,28.58,29.04,45.99,6.79,17.41,10.18,35.85,10.18,55.34v31.57Zm-128.62-23.38c0-9.35-2.33-15.91-6.98-19.68-4.66-3.76-9.87-5.65-15.65-5.65h-16.6v81.06h16.6c6.04,0,11.32-1.69,15.84-5.07,4.53-3.37,6.79-10,6.79-19.88v-30.79Zm.75,190.18c0-6.24-1.95-11.62-5.85-16.17-3.9-4.54-9.62-6.82-17.16-6.82h-16.97v93.92h17.73c6.04,0,11.25-2.2,15.65-6.63,4.4-4.41,6.6-9.74,6.6-15.98v-48.33Z"/>
        <path class="cls-1" d="m1970.65,399.83c0,22.89-4.21,43-12.64,60.35-8.43,17.35-19.74,31.94-33.95,43.75-14.21,11.82-30.62,20.75-49.22,26.78-18.61,6.04-38.23,9.05-58.84,9.05s-39.86-3.15-58.47-9.43c-18.61-6.28-35.02-15.4-49.22-27.35-14.21-11.94-25.46-26.59-33.76-43.94-8.3-17.35-12.45-37.09-12.45-59.22V139.94c0-22.63,4.15-42.62,12.45-59.97,8.3-17.35,19.55-31.93,33.76-43.75,14.2-11.82,30.55-20.75,49.03-26.78,18.48-6.04,37.91-9.05,58.28-9.05s40.29,3.02,59.03,9.05c18.73,6.04,35.2,14.9,49.41,26.59,14.2,11.69,25.52,26.22,33.95,43.57,8.42,17.35,12.64,37.47,12.64,60.35v259.89Zm-168.8-268.94c-2.64,5.53-3.96,11.32-3.96,17.35v243.67c0,6.29,1.13,12.07,3.39,17.35,2.26,5.28,7.17,7.92,14.71,7.92s12.88-2.13,15.28-6.41c2.39-4.27,3.58-9.55,3.58-15.84v-246.69c0-6.04-1.2-11.82-3.58-17.35-2.39-5.53-7.23-8.3-14.52-8.3s-12.26,2.77-14.9,8.3Z"/>
        <path class="cls-1" d="m2409.21,430.42c28.12,23.19,53,48.73,74.61,76.63,21.6,27.91,38.82,58.86,51.65,92.84,12.83,33.99,19.24,72.58,19.24,115.79,0,34.21-6.31,66.62-18.9,97.22-12.61,30.61-30.61,57.17-54.01,79.67-23.41,22.51-51.65,40.4-84.73,53.68-33.08,13.27-70.33,19.92-111.74,19.92-48.61,0-89.8-7.88-123.56-23.63-33.76-15.75-61.1-35.89-82.03-60.43-20.93-24.53-36.02-52.09-45.24-82.71-9.23-30.6-13.84-60.76-13.84-90.47v-36.46c0-14.4,1.57-24.31,4.73-29.71,3.14-5.4,10.13-8.1,20.93-8.1h175.54c11.7,0,19.01,2.14,21.94,6.41,2.92,4.28,4.39,12.49,4.39,24.64v29.03c0,20.25,3.71,33.99,11.14,41.18,7.43,7.21,16.99,10.8,28.7,10.8,10.35,0,19.01-3.6,25.99-10.8,6.97-7.2,10.47-18.45,10.47-33.76,0-19.8-7.21-37.58-21.61-53.34-14.41-15.75-35.78-34.88-64.14-57.39-41.86-33.76-76.75-62.45-104.65-86.08-27.91-23.63-50.3-47.15-67.18-70.55-16.88-23.4-28.81-49.06-35.78-76.97-6.98-27.9-10.47-62.79-10.47-104.65s7.77-77.87,23.29-109.38c15.53-31.5,35.67-57.83,60.43-78.99,24.75-21.15,52.43-37.13,83.05-47.94,30.6-10.8,60.99-16.2,91.15-16.2,37.36,0,72.01,5.97,103.98,17.89,31.95,11.93,59.64,29.26,83.05,51.99,23.4,22.73,41.63,50.64,54.69,83.72,13.05,33.08,19.58,71.01,19.58,113.77v37.13c0,10.8-1.8,18.12-5.4,21.94-3.61,3.83-11.93,5.74-24.98,5.74h-172.17c-9.45,0-15.42-1.91-17.89-5.74-2.48-3.82-3.71-11.36-3.71-22.62v-35.11c0-33.3-12.15-49.96-36.46-49.96-11.71,0-20.37,3.83-26,11.48-5.63,7.66-8.44,17.33-8.44,29.03,0,10.36,1.01,19.36,3.04,27.01,2.03,7.66,5.74,15.19,11.14,22.62,5.4,7.43,13.05,15.19,22.96,23.29,9.89,8.1,22.96,18.01,39.16,29.71,30.6,22.06,59.97,44.68,88.11,67.85Z"/>
      </g>
      <g>
        <path class="cls-1" d="m524.6,315.07c0,19.06-3.04,37.07-9.11,54.03-6.08,16.97-13.74,32.07-22.96,45.31-9.23,13.24-19.02,24.29-29.37,33.11-10.36,8.83-19.81,14.64-28.36,17.43,8.1,3.26,18,9.41,29.71,18.47,11.7,9.06,23.06,20.91,34.1,35.55,11.02,14.64,20.48,31.96,28.36,51.93,7.87,19.99,11.82,42.52,11.82,67.62v89.23c0,33.93-7.32,65.53-21.94,94.81-14.63,29.28-33.76,54.49-57.39,75.63-23.63,21.15-50.53,37.76-80.68,49.84-30.16,12.09-60.76,18.12-91.82,18.12H25.66c-17.11,0-25.66-9.52-25.66-28.58V29.95C0,10.43,8.55.68,25.66.68h241.03c39.16,0,74.61,6.86,106.34,20.56,31.73,13.71,58.84,32.42,81.36,56.12,22.5,23.7,39.84,51.13,51.99,82.26,12.15,31.14,18.23,64.13,18.23,98.99v56.47Zm-230.23-41.83c0-16.73-4.17-28.46-12.49-35.2-8.34-6.73-17.67-10.11-28.02-10.11h-29.71v145h29.71c10.8,0,20.26-3.02,28.36-9.06,8.1-6.03,12.15-17.89,12.15-35.55v-55.07Zm1.35,340.19c0-11.15-3.49-20.79-10.47-28.93-6.98-8.13-17.22-12.2-30.72-12.2h-30.38v168h31.73c10.8,0,20.14-3.94,28.02-11.85,7.87-7.9,11.81-17.43,11.81-28.58v-86.44Z"/>
        <path class="cls-1" d="m896.95,523.67c0,4.09-1.13,7.8-3.39,11.12-2.26,3.32-5.53,4.98-9.81,4.98h-109.39c-3.77,0-6.92-1.59-9.43-4.79-2.52-3.19-3.77-6.96-3.77-11.31v-85.49h-36.59v85.49c0,4.35-.75,8.12-2.26,11.31-1.51,3.2-4.78,4.79-9.81,4.79h-113.54c-2.77,0-5.16-1.66-7.17-4.98-2.02-3.32-3.02-7.03-3.02-11.12V142.23c0-19.68,4.15-38.2,12.45-55.59,8.3-17.38,19.55-32.45,33.76-45.24,14.2-12.78,30.61-22.87,49.22-30.29,18.61-7.41,38.1-11.12,58.47-11.12s39.92,3.71,58.65,11.12c18.73,7.42,35.14,17.51,49.22,30.29,14.08,12.78,25.33,27.86,33.76,45.24,8.42,17.38,12.64,35.91,12.64,55.59v381.44Zm-172.38-205.48h36.59v-167.91c0-6.39-1.2-12.27-3.58-17.63-2.39-5.37-7.23-8.05-14.52-8.05s-12.2,2.68-14.71,8.05c-2.52,5.37-3.77,11.25-3.77,17.63v167.91Z"/>
        <path class="cls-1" d="m1141.96,539.38c-5.53,0-10.44-1.69-14.71-5.07-4.28-3.37-6.41-8.44-6.41-15.2v-83.01c0-23.38-3.02-41.83-9.05-55.34-6.03-13.51-15.72-22.86-29.04-28.06v171.09c0,10.66-4.66,15.98-13.96,15.98h-107.5c-9.56,0-14.33-5.32-14.33-15.98V16.37c0-10.91,4.77-16.37,14.33-16.37h147.48c20.62,0,39.85,3.96,57.71,11.89,17.85,7.93,33.44,18.71,46.77,32.35,13.33,13.64,23.82,29.42,31.5,47.35,7.67,17.93,11.5,37.02,11.5,57.29v58.85c0,20.53-4.15,38.33-12.45,53.39-8.3,15.07-18.86,28.06-31.68,38.97,15.09,15.59,26.22,35.6,33.38,60.02,7.17,24.42,10.75,54.82,10.75,91.19v69.37c0,3.9-1.13,7.99-3.39,12.28-2.26,4.29-6.29,6.43-12.07,6.43h-98.82Zm-59.22-412.33v114.19h15.09c6.54,0,11.94-2.01,16.22-6.04,4.27-4.02,6.41-9.16,6.41-15.39v-70.93c0-7.27-2.26-12.73-6.79-16.37-4.53-3.64-9.94-5.46-16.22-5.46h-14.71Z"/>
        <path class="cls-1" d="m1599.33,175.77c0,10.66-1.7,20.72-5.09,30.2-3.39,9.49-7.67,17.93-12.83,25.33-5.16,7.4-10.63,13.58-16.41,18.51-5.79,4.94-11.07,8.18-15.84,9.74,4.53,1.82,10.05,5.26,16.6,10.33,6.54,5.07,12.88,11.69,19.05,19.88,6.16,8.18,11.44,17.87,15.84,29.03,4.4,11.17,6.6,23.77,6.6,37.8v49.88c0,18.97-4.09,36.63-12.26,53-8.17,16.37-18.86,30.47-32.06,42.28-13.2,11.83-28.23,21.11-45.07,27.87-16.85,6.76-33.95,10.13-51.3,10.13h-145.97c-9.56,0-14.33-5.32-14.33-15.98V16.37c0-10.91,4.77-16.37,14.33-16.37h134.66c21.88,0,41.68,3.84,59.41,11.5,17.73,7.67,32.87,18.12,45.45,31.37,12.57,13.25,22.25,28.58,29.04,45.99,6.79,17.41,10.18,35.85,10.18,55.34v31.57Zm-128.62-23.38c0-9.35-2.33-15.91-6.98-19.68-4.66-3.76-9.87-5.65-15.65-5.65h-16.6v81.06h16.6c6.04,0,11.32-1.69,15.84-5.07,4.53-3.37,6.79-10,6.79-19.88v-30.79Zm.75,190.18c0-6.24-1.95-11.62-5.85-16.17-3.9-4.54-9.62-6.82-17.16-6.82h-16.97v93.92h17.73c6.04,0,11.25-2.2,15.65-6.63,4.4-4.41,6.6-9.74,6.6-15.98v-48.33Z"/>
        <path class="cls-1" d="m1970.65,399.83c0,22.89-4.21,43-12.64,60.35-8.43,17.35-19.74,31.94-33.95,43.75-14.21,11.82-30.62,20.75-49.22,26.78-18.61,6.04-38.23,9.05-58.84,9.05s-39.86-3.15-58.47-9.43c-18.61-6.28-35.02-15.4-49.22-27.35-14.21-11.94-25.46-26.59-33.76-43.94-8.3-17.35-12.45-37.09-12.45-59.22V139.94c0-22.63,4.15-42.62,12.45-59.97,8.3-17.35,19.55-31.93,33.76-43.75,14.2-11.82,30.55-20.75,49.03-26.78,18.48-6.04,37.91-9.05,58.28-9.05s40.29,3.02,59.03,9.05c18.73,6.04,35.2,14.9,49.41,26.59,14.2,11.69,25.52,26.22,33.95,43.57,8.42,17.35,12.64,37.47,12.64,60.35v259.89Zm-168.8-268.94c-2.64,5.53-3.96,11.32-3.96,17.35v243.67c0,6.29,1.13,12.07,3.39,17.35,2.26,5.28,7.17,7.92,14.71,7.92s12.88-2.13,15.28-6.41c2.39-4.27,3.58-9.55,3.58-15.84v-246.69c0-6.04-1.2-11.82-3.58-17.35-2.39-5.53-7.23-8.3-14.52-8.3s-12.26,2.77-14.9,8.3Z"/>
        <path class="cls-1" d="m2409.21,430.42c28.12,23.19,53,48.73,74.61,76.63,21.6,27.91,38.82,58.86,51.65,92.84,12.83,33.99,19.24,72.58,19.24,115.79,0,34.21-6.31,66.62-18.9,97.22-12.61,30.61-30.61,57.17-54.01,79.67-23.41,22.51-51.65,40.4-84.73,53.68-33.08,13.27-70.33,19.92-111.74,19.92-48.61,0-89.8-7.88-123.56-23.63-33.76-15.75-61.1-35.89-82.03-60.43-20.93-24.53-36.02-52.09-45.24-82.71-9.23-30.6-13.84-60.76-13.84-90.47v-36.46c0-14.4,1.57-24.31,4.73-29.71,3.14-5.4,10.13-8.1,20.93-8.1h175.54c11.7,0,19.01,2.14,21.94,6.41,2.92,4.28,4.39,12.49,4.39,24.64v29.03c0,20.25,3.71,33.99,11.14,41.18,7.43,7.21,16.99,10.8,28.7,10.8,10.35,0,19.01-3.6,25.99-10.8,6.97-7.2,10.47-18.45,10.47-33.76,0-19.8-7.21-37.58-21.61-53.34-14.41-15.75-35.78-34.88-64.14-57.39-41.86-33.76-76.75-62.45-104.65-86.08-27.91-23.63-50.3-47.15-67.18-70.55-16.88-23.4-28.81-49.06-35.78-76.97-6.98-27.9-10.47-62.79-10.47-104.65s7.77-77.87,23.29-109.38c15.53-31.5,35.67-57.83,60.43-78.99,24.75-21.15,52.43-37.13,83.05-47.94,30.6-10.8,60.99-16.2,91.15-16.2,37.36,0,72.01,5.97,103.98,17.89,31.95,11.93,59.64,29.26,83.05,51.99,23.4,22.73,41.63,50.64,54.69,83.72,13.05,33.08,19.58,71.01,19.58,113.77v37.13c0,10.8-1.8,18.12-5.4,21.94-3.61,3.83-11.93,5.74-24.98,5.74h-172.17c-9.45,0-15.42-1.91-17.89-5.74-2.48-3.82-3.71-11.36-3.71-22.62v-35.11c0-33.3-12.15-49.96-36.46-49.96-11.71,0-20.37,3.83-26,11.48-5.63,7.66-8.44,17.33-8.44,29.03,0,10.36,1.01,19.36,3.04,27.01,2.03,7.66,5.74,15.19,11.14,22.62,5.4,7.43,13.05,15.19,22.96,23.29,9.89,8.1,22.96,18.01,39.16,29.71,30.6,22.06,59.97,44.68,88.11,67.85Z"/>
      </g>
      <g>
        <path class="cls-1" d="m769.42,742.6c0,6.54-1.05,12.73-3.14,18.55-2.09,5.83-4.73,11.01-7.9,15.56-3.18,4.55-6.55,8.34-10.11,11.37-3.57,3.03-6.82,5.03-9.76,5.98,2.79,1.12,6.2,3.23,10.23,6.34,4.03,3.11,7.94,7.18,11.74,12.21,3.8,5.03,7.05,10.97,9.76,17.83,2.71,6.86,4.07,14.6,4.07,23.22v30.64c0,11.65-2.52,22.5-7.56,32.55-5.04,10.05-11.62,18.71-19.76,25.97-8.14,7.26-17.4,12.97-27.78,17.11-10.39,4.15-20.92,6.22-31.62,6.22h-89.97c-5.89,0-8.83-3.27-8.83-9.81v-311.64c0-6.7,2.94-10.05,8.83-10.05h83c13.48,0,25.69,2.36,36.62,7.06,10.93,4.71,20.26,11.13,28.01,19.27,7.75,8.14,13.72,17.56,17.9,28.24,4.18,10.69,6.28,22.02,6.28,33.99v19.39Zm-79.28-14.36c0-5.74-1.44-9.77-4.3-12.09-2.87-2.31-6.08-3.47-9.65-3.47h-10.23v49.79h10.23c3.72,0,6.97-1.04,9.76-3.11,2.79-2.07,4.18-6.14,4.18-12.21v-18.91Zm.46,116.8c0-3.83-1.2-7.14-3.6-9.93-2.4-2.79-5.93-4.19-10.58-4.19h-10.46v57.68h10.93c3.72,0,6.93-1.35,9.65-4.07,2.71-2.71,4.07-5.98,4.07-9.81v-29.68Z"/>
        <path class="cls-1" d="m888.68,644.54c0-2.67.77-4.98,2.33-6.95,1.55-1.96,3.49-2.94,5.81-2.94h67.42c2.63,0,4.65,1.02,6.04,3.06,1.39,2.04,2.09,4.32,2.09,6.83v234.27c0,12.09-2.6,23.43-7.79,34.02-5.19,10.6-12.13,19.86-20.81,27.78-8.68,7.93-18.79,14.17-30.34,18.72-11.55,4.55-23.6,6.83-36.15,6.83s-24.57-2.28-36.03-6.83c-11.47-4.55-21.58-10.79-30.34-18.72-8.76-7.92-15.69-17.19-20.81-27.78-5.11-10.59-7.67-21.93-7.67-34.02v-234.27c0-2.51.62-4.79,1.86-6.83,1.24-2.04,2.71-3.06,4.42-3.06h69.98c3.1,0,5.11.98,6.04,2.94.93,1.96,1.39,4.28,1.39,6.95v229.32c0,3.93.77,7.53,2.33,10.83,1.55,3.3,4.57,4.94,9.07,4.94s7.48-1.65,8.95-4.94c1.47-3.3,2.21-6.91,2.21-10.83v-229.32Z"/>
        <path class="cls-1" d="m1109.31,965.92c-3.41,0-6.43-1.04-9.07-3.11-2.64-2.07-3.95-5.18-3.95-9.33v-50.98c0-14.36-1.86-25.69-5.58-33.99-3.72-8.3-9.69-14.04-17.9-17.23v105.08c0,6.54-2.87,9.81-8.6,9.81h-66.26c-5.89,0-8.83-3.27-8.83-9.81v-311.64c0-6.7,2.94-10.05,8.83-10.05h90.9c12.71,0,24.56,2.43,35.57,7.3,11,4.87,20.61,11.49,28.83,19.87,8.21,8.38,14.68,18.07,19.41,29.08,4.73,11.01,7.09,22.74,7.09,35.19v36.14c0,12.61-2.56,23.54-7.67,32.79-5.11,9.26-11.62,17.23-19.53,23.94,9.3,9.57,16.16,21.86,20.57,36.86,4.42,15,6.63,33.67,6.63,56.01v42.61c0,2.39-.7,4.91-2.09,7.54-1.39,2.63-3.88,3.95-7.44,3.95h-60.91Zm-36.5-253.24v70.13h9.3c4.03,0,7.36-1.23,10-3.71,2.63-2.47,3.95-5.62,3.95-9.45v-43.56c0-4.47-1.39-7.82-4.18-10.05-2.79-2.23-6.12-3.35-10-3.35h-9.07Z"/>
        <path class="cls-1" d="m1299.94,847.7h-8.6c-2.64,0-4.42-.73-5.35-2.2-.93-1.47-1.39-3.75-1.39-6.84v-50.07c0-3.09.47-5.41,1.39-6.95.93-1.54,2.71-2.32,5.35-2.32h77.42c6.2,0,9.3,3.09,9.3,9.27v91.57c0,14.07-2.37,26.43-7.09,37.09-4.73,10.66-11.2,19.63-19.41,26.89-8.22,7.27-17.86,12.75-28.94,16.46-11.08,3.71-22.98,5.56-35.69,5.56s-24.57-1.85-36.03-5.56c-11.47-3.71-21.58-9.16-30.34-16.34-8.76-7.19-15.69-16.15-20.81-26.89-5.11-10.74-7.67-23.14-7.67-37.21v-159.73c0-13.91,2.56-26.23,7.67-36.98,5.11-10.74,12.05-19.7,20.81-26.89,8.75-7.19,18.87-12.63,30.34-16.34,11.47-3.71,23.48-5.56,36.03-5.56s24.25,1.55,33.71,4.64c9.45,3.09,17.47,7.19,24.06,12.29,6.59,5.1,11.97,10.82,16.16,17.15,4.18,6.34,7.44,12.75,9.76,19.24,2.32,6.49,3.91,12.75,4.77,18.78.85,6.03,1.28,11.21,1.28,15.53v24.11c0,3.71-.54,6.41-1.63,8.11-1.09,1.7-3.33,2.55-6.74,2.55h-62.31c-2.95,0-4.92-.77-5.93-2.32-1.01-1.54-1.51-3.86-1.51-6.95v-23.18c0-3.25-.85-6.53-2.56-9.85-1.71-3.32-4.96-4.98-9.76-4.98-3.88,0-6.59,1.31-8.14,3.94-1.55,2.63-2.33,5.88-2.33,9.74v152.31c0,4.79.93,8.5,2.79,11.13,1.86,2.63,4.65,3.94,8.37,3.94,4.03,0,7.21-1.28,9.53-3.83,2.32-2.55,3.49-5.68,3.49-9.39v-29.91Z"/>
        <path class="cls-1" d="m1496.62,644.54c0-2.67.77-4.98,2.33-6.95,1.55-1.96,3.49-2.94,5.81-2.94h67.42c2.63,0,4.65,1.02,6.04,3.06,1.39,2.04,2.09,4.32,2.09,6.83v234.27c0,12.09-2.6,23.43-7.79,34.02-5.19,10.6-12.13,19.86-20.81,27.78-8.68,7.93-18.79,14.17-30.34,18.72-11.55,4.55-23.6,6.83-36.15,6.83s-24.57-2.28-36.03-6.83c-11.47-4.55-21.58-10.79-30.34-18.72-8.76-7.92-15.69-17.19-20.81-27.78-5.11-10.59-7.67-21.93-7.67-34.02v-234.27c0-2.51.62-4.79,1.86-6.83,1.24-2.04,2.71-3.06,4.42-3.06h69.98c3.1,0,5.11.98,6.04,2.94.93,1.96,1.39,4.28,1.39,6.95v229.32c0,3.93.77,7.53,2.33,10.83,1.55,3.3,4.57,4.94,9.07,4.94s7.48-1.65,8.95-4.94c1.47-3.3,2.21-6.91,2.21-10.83v-229.32Z"/>
        <path class="cls-1" d="m1762.35,888.61c4.8,0,7.21,3.11,7.21,9.33v58.88c0,6.22-2.4,9.33-7.21,9.33h-156.46c-5.89,0-8.83-3.27-8.83-9.81v-311.64c0-6.7,2.94-10.05,8.83-10.05h154.6c4.49,0,6.74,3.35,6.74,10.05v58.16c0,6.54-2.25,9.81-6.74,9.81h-79.74v48.83h62.54c2.48,0,4.45.8,5.93,2.39,1.47,1.6,2.21,4.07,2.21,7.42v58.16c0,6.38-2.71,9.57-8.14,9.57h-62.54v49.55h81.6Z"/>
        <path class="cls-1" d="m1899.98,965.92c-3.41,0-6.43-1.04-9.07-3.11-2.64-2.07-3.95-5.18-3.95-9.33v-50.98c0-14.36-1.86-25.69-5.58-33.99-3.72-8.3-9.69-14.04-17.9-17.23v105.08c0,6.54-2.87,9.81-8.6,9.81h-66.26c-5.89,0-8.83-3.27-8.83-9.81v-311.64c0-6.7,2.94-10.05,8.83-10.05h90.9c12.71,0,24.56,2.43,35.57,7.3,11,4.87,20.61,11.49,28.83,19.87,8.21,8.38,14.68,18.07,19.41,29.08,4.73,11.01,7.09,22.74,7.09,35.19v36.14c0,12.61-2.56,23.54-7.67,32.79-5.11,9.26-11.62,17.23-19.53,23.94,9.3,9.57,16.16,21.86,20.57,36.86,4.42,15,6.63,33.67,6.63,56.01v42.61c0,2.39-.7,4.91-2.09,7.54-1.39,2.63-3.88,3.95-7.44,3.95h-60.91Zm-36.5-253.24v70.13h9.3c4.03,0,7.36-1.23,10-3.71,2.63-2.47,3.95-5.62,3.95-9.45v-43.56c0-4.47-1.39-7.82-4.18-10.05-2.79-2.23-6.12-3.35-10-3.35h-9.07Z"/>
      </g>
    </g>
  </g>
</svg>